<svg width="200" height="200" viewBox="0 0 200 200" xmlns="http://www.w3.org/2000/svg">
  <defs>
    <linearGradient id="emeraldGrad" x1="0%" y1="0%" x2="100%" y2="100%">
      <stop offset="0%" style="stop-color:#50C878;stop-opacity:1" />
      <stop offset="50%" style="stop-color:#2E8B57;stop-opacity:1" />
      <stop offset="100%" style="stop-color:#1B5E3B;stop-opacity:1" />
    </linearGradient>
    <linearGradient id="goldAccent" x1="0%" y1="0%" x2="100%" y2="100%">
      <stop offset="0%" style="stop-color:#FFD700;stop-opacity:1" />
      <stop offset="50%" style="stop-color:#FFA500;stop-opacity:1" />
      <stop offset="100%" style="stop-color:#FF8C00;stop-opacity:1" />
    </linearGradient>
    <radialGradient id="gemShine" cx="40%" cy="40%">
      <stop offset="0%" style="stop-color:#FFFFFF;stop-opacity:1" />
      <stop offset="100%" style="stop-color:#50C878;stop-opacity:0.3" />
    </radialGradient>
  </defs>
  
  <!-- Background circle -->
  <circle cx="100" cy="100" r="95" fill="url(#emeraldGrad)" stroke="#1B5E3B" stroke-width="3"/>
  <circle cx="100" cy="100" r="85" fill="none" stroke="url(#goldAccent)" stroke-width="3" stroke-dasharray="5,5"/>
  
  <!-- Executive desk nameplate -->
  <rect x="60" y="105" width="80" height="50" rx="3" fill="#8B4513" stroke="#654321" stroke-width="2"/>
  <rect x="63" y="108" width="74" height="44" fill="url(#goldAccent)" stroke="#CC8800" stroke-width="2"/>
  
  <!-- Nameplate engraving -->
  <rect x="68" y="113" width="64" height="34" fill="#DAA520" stroke="#B8860B" stroke-width="1"/>
  <line x1="73" y1="125" x2="127" y2="125" stroke="#8B6914" stroke-width="2"/>
  <line x1="73" y1="135" x2="120" y2="135" stroke="#8B6914" stroke-width="1.5"/>
  
  <!-- Crown/Presidential emblem -->
  <polygon points="100,55 90,75 95,75 85,90 97,78 100,85 103,78 115,90 105,75 110,75" 
           fill="url(#goldAccent)" stroke="#CC8800" stroke-width="2"/>
  
  <!-- Crown jewels -->
  <circle cx="90" cy="72" r="3" fill="url(#gemShine)" stroke="#1B5E3B" stroke-width="1"/>
  <circle cx="100" cy="65" r="4" fill="url(#gemShine)" stroke="#1B5E3B" stroke-width="1"/>
  <circle cx="110" cy="72" r="3" fill="url(#gemShine)" stroke="#1B5E3B" stroke-width="1"/>
  
  <!-- AFL football icon -->
  <ellipse cx="100" cy="125" rx="18" ry="11" fill="#8B2500" stroke="#5C1700" stroke-width="2"/>
  <line x1="82" y1="125" x2="118" y2="125" stroke="#FFF" stroke-width="2"/>
  <line x1="88" y1="125" x2="112" y2="125" stroke="#FFF" stroke-width="1.5"/>
  <path d="M 94 117 Q 100 122, 106 117" stroke="#FFF" stroke-width="1.5" fill="none"/>
  <path d="M 94 133 Q 100 128, 106 133" stroke="#FFF" stroke-width="1.5" fill="none"/>
  
  <!-- Laurel wreath left -->
  <path d="M 45 100 Q 50 85, 55 90 Q 53 95, 55 100 Q 53 105, 55 110 Q 50 115, 45 100" 
        fill="#2E8B57" stroke="#1B5E3B" stroke-width="1.5"/>
  
  <!-- Laurel wreath right -->
  <path d="M 155 100 Q 150 85, 145 90 Q 147 95, 145 100 Q 147 105, 145 110 Q 150 115, 155 100" 
        fill="#2E8B57" stroke="#1B5E3B" stroke-width="1.5"/>
  
  <!-- VIP stars -->
  <polygon points="70,50 72,56 78,56 73,60 75,66 70,62 65,66 67,60 62,56 68,56" 
           fill="#FFD700" stroke="#FFA500" stroke-width="0.5"/>
  <polygon points="130,50 132,56 138,56 133,60 135,66 130,62 125,66 127,60 122,56 128,56" 
           fill="#FFD700" stroke="#FFA500" stroke-width="0.5"/>
  
  <!-- Text -->
  <text x="100" y="175" font-family="Arial, sans-serif" font-size="13" font-weight="bold" fill="#1B5E3B" text-anchor="middle">CLUB PRESIDENT</text>
</svg>
