<svg width="200" height="200" viewBox="0 0 200 200" xmlns="http://www.w3.org/2000/svg">
  <!-- Background circle -->
  <circle cx="100" cy="100" r="95" fill="#FFD700" stroke="#FFA500" stroke-width="3"/>
  <circle cx="100" cy="100" r="85" fill="none" stroke="#FFED4E" stroke-width="2" stroke-dasharray="5,5"/>
  
  <!-- Headset earpiece left -->
  <ellipse cx="70" cy="95" rx="15" ry="20" fill="#1A1A1A" stroke="#000" stroke-width="2"/>
  <ellipse cx="70" cy="95" rx="10" ry="15" fill="#2C2C2C"/>
  
  <!-- Headset earpiece right -->
  <ellipse cx="130" cy="95" rx="15" ry="20" fill="#1A1A1A" stroke="#000" stroke-width="2"/>
  <ellipse cx="130" cy="95" rx="10" ry="15" fill="#2C2C2C"/>
  
  <!-- Headset band -->
  <path d="M 70 80 Q 100 65, 130 80" stroke="#1A1A1A" stroke-width="4" fill="none" stroke-linecap="round"/>
  <path d="M 72 82 Q 100 68, 128 82" stroke="#333" stroke-width="2" fill="none" stroke-linecap="round"/>
  
  <!-- Microphone boom -->
  <path d="M 130 100 Q 145 105, 145 115" stroke="#1A1A1A" stroke-width="3" fill="none"/>
  <ellipse cx="145" cy="120" rx="4" ry="6" fill="#2C2C2C" stroke="#000" stroke-width="1"/>
  
  <!-- Strategy notebook -->
  <rect x="75" y="120" width="50" height="60" rx="2" fill="#003366" stroke="#001F3F" stroke-width="2"/>
  <rect x="78" y="123" width="44" height="54" fill="#0055AA"/>
  
  <!-- Notebook lines -->
  <line x1="82" y1="133" x2="118" y2="133" stroke="#FFF" stroke-width="1" opacity="0.7"/>
  <line x1="82" y1="143" x2="118" y2="143" stroke="#FFF" stroke-width="1" opacity="0.7"/>
  <line x1="82" y1="153" x2="115" y2="153" stroke="#FFF" stroke-width="1" opacity="0.7"/>
  <line x1="82" y1="163" x2="118" y2="163" stroke="#FFF" stroke-width="1" opacity="0.7"/>
  
  <!-- Pen -->
  <rect x="110" y="115" width="4" height="25" fill="#CC0000" stroke="#990000" stroke-width="1"/>
  <polygon points="112,140 110,145 114,145" fill="#333"/>
  
  <!-- Text -->
  <text x="100" y="35" font-family="Arial, sans-serif" font-size="16" font-weight="bold" fill="#003366" text-anchor="middle">SENIOR</text>
  <text x="100" y="52" font-family="Arial, sans-serif" font-size="15" font-weight="bold" fill="#003366" text-anchor="middle">COACH</text>
</svg>
